<mxfile host="app.diagrams.net" agent="Mozilla/5.0 (Windows NT 10.0; Win64; x64) AppleWebKit/537.36 (KHTML, like Gecko) Chrome/128.0.0.0 Safari/537.36" version="24.7.16">
  <diagram name="PÃ¡gina-1" id="zsMx_DoHXIrUkT5cKOZX">
    <mxGraphModel dx="1290" dy="557" grid="1" gridSize="10" guides="1" tooltips="1" connect="1" arrows="1" fold="1" page="1" pageScale="1" pageWidth="827" pageHeight="1169" math="0" shadow="0">
      <root>
        <mxCell id="0" />
        <mxCell id="1" parent="0" />
        <mxCell id="aB4jjDkMeXqBvQ0BAeto-1" value="&lt;font style=&quot;vertical-align: inherit;&quot;&gt;&lt;font style=&quot;vertical-align: inherit;&quot;&gt;MongoDB&lt;/font&gt;&lt;/font&gt;" style="shape=cylinder3;whiteSpace=wrap;html=1;boundedLbl=1;backgroundOutline=1;size=15;fillColor=#FF9999;" parent="1" vertex="1">
          <mxGeometry x="434" y="350" width="60" height="80" as="geometry" />
        </mxCell>
        <mxCell id="aB4jjDkMeXqBvQ0BAeto-2" value="&lt;font style=&quot;vertical-align: inherit;&quot;&gt;&lt;font style=&quot;vertical-align: inherit;&quot;&gt;&lt;font style=&quot;vertical-align: inherit;&quot;&gt;&lt;font style=&quot;vertical-align: inherit;&quot;&gt;API&lt;/font&gt;&lt;/font&gt;&lt;/font&gt;&lt;/font&gt;&lt;div&gt;&lt;font style=&quot;vertical-align: inherit;&quot;&gt;&lt;font style=&quot;vertical-align: inherit;&quot;&gt;&lt;font style=&quot;vertical-align: inherit;&quot;&gt;&lt;font style=&quot;vertical-align: inherit;&quot;&gt;&lt;font style=&quot;vertical-align: inherit;&quot;&gt;&lt;font style=&quot;vertical-align: inherit;&quot;&gt;Java&lt;/font&gt;&lt;/font&gt;&lt;/font&gt;&lt;/font&gt;&lt;/font&gt;&lt;/font&gt;&lt;/div&gt;" style="shape=cube;whiteSpace=wrap;html=1;boundedLbl=1;backgroundOutline=1;darkOpacity=0.05;darkOpacity2=0.1;fillColor=#FFD966;" parent="1" vertex="1">
          <mxGeometry x="250" y="290" width="80" height="140" as="geometry" />
        </mxCell>
        <mxCell id="aB4jjDkMeXqBvQ0BAeto-3" value="" style="endArrow=classic;html=1;rounded=0;exitX=0.977;exitY=0.696;exitDx=0;exitDy=0;exitPerimeter=0;entryX=0;entryY=0.5;entryDx=0;entryDy=0;entryPerimeter=0;" parent="1" source="aB4jjDkMeXqBvQ0BAeto-2" target="aB4jjDkMeXqBvQ0BAeto-1" edge="1">
          <mxGeometry width="50" height="50" relative="1" as="geometry">
            <mxPoint x="350" y="440" as="sourcePoint" />
            <mxPoint x="400" y="390" as="targetPoint" />
          </mxGeometry>
        </mxCell>
        <mxCell id="aB4jjDkMeXqBvQ0BAeto-12" value="&lt;font style=&quot;vertical-align: inherit;&quot;&gt;&lt;font style=&quot;vertical-align: inherit;&quot;&gt;Insert&lt;/font&gt;&lt;/font&gt;" style="edgeLabel;html=1;align=center;verticalAlign=middle;resizable=0;points=[];" parent="aB4jjDkMeXqBvQ0BAeto-3" vertex="1" connectable="0">
          <mxGeometry x="0.0446" y="2" relative="1" as="geometry">
            <mxPoint as="offset" />
          </mxGeometry>
        </mxCell>
        <mxCell id="aB4jjDkMeXqBvQ0BAeto-4" value="" style="rounded=1;whiteSpace=wrap;html=1;fillColor=#330000;" parent="1" vertex="1">
          <mxGeometry x="419" y="130" width="91" height="160" as="geometry" />
        </mxCell>
        <mxCell id="aB4jjDkMeXqBvQ0BAeto-5" value="&lt;font style=&quot;vertical-align: inherit;&quot;&gt;&lt;font style=&quot;vertical-align: inherit;&quot;&gt;&lt;font style=&quot;vertical-align: inherit;&quot;&gt;&lt;font style=&quot;vertical-align: inherit;&quot;&gt;&lt;font style=&quot;vertical-align: inherit;&quot;&gt;&lt;font style=&quot;vertical-align: inherit;&quot;&gt;React&lt;/font&gt;&lt;/font&gt;&lt;/font&gt;&lt;/font&gt;&lt;/font&gt;&lt;/font&gt;&lt;div&gt;&lt;font style=&quot;vertical-align: inherit;&quot;&gt;&lt;font style=&quot;vertical-align: inherit;&quot;&gt;&lt;font style=&quot;vertical-align: inherit;&quot;&gt;&lt;font style=&quot;vertical-align: inherit;&quot;&gt;&lt;font style=&quot;vertical-align: inherit;&quot;&gt;&lt;font style=&quot;vertical-align: inherit;&quot;&gt;&lt;font style=&quot;vertical-align: inherit;&quot;&gt;&lt;font style=&quot;vertical-align: inherit;&quot;&gt;Native&lt;/font&gt;&lt;/font&gt;&lt;/font&gt;&lt;/font&gt;&lt;/font&gt;&lt;/font&gt;&lt;/font&gt;&lt;/font&gt;&lt;/div&gt;" style="rounded=1;whiteSpace=wrap;html=1;rotation=0;fillColor=#D4E1F5;" parent="1" vertex="1">
          <mxGeometry x="429" y="140" width="71" height="120" as="geometry" />
        </mxCell>
        <mxCell id="aB4jjDkMeXqBvQ0BAeto-6" value="" style="triangle;whiteSpace=wrap;html=1;rotation=-180;fillColor=#CCCCCC;" parent="1" vertex="1">
          <mxGeometry x="434" y="270" width="10" height="10" as="geometry" />
        </mxCell>
        <mxCell id="aB4jjDkMeXqBvQ0BAeto-7" value="" style="ellipse;whiteSpace=wrap;html=1;aspect=fixed;fillColor=#B3B3B3;" parent="1" vertex="1">
          <mxGeometry x="459.5" y="270" width="10" height="10" as="geometry" />
        </mxCell>
        <mxCell id="aB4jjDkMeXqBvQ0BAeto-9" value="" style="whiteSpace=wrap;html=1;aspect=fixed;fillColor=#B3B3B3;" parent="1" vertex="1">
          <mxGeometry x="484" y="270" width="10" height="10" as="geometry" />
        </mxCell>
        <mxCell id="aB4jjDkMeXqBvQ0BAeto-10" value="" style="endArrow=classic;html=1;rounded=0;exitX=0;exitY=0.5;exitDx=0;exitDy=0;" parent="1" source="aB4jjDkMeXqBvQ0BAeto-4" target="aB4jjDkMeXqBvQ0BAeto-2" edge="1">
          <mxGeometry width="50" height="50" relative="1" as="geometry">
            <mxPoint x="260.31999999999994" y="188.32000000000005" as="sourcePoint" />
            <mxPoint x="391" y="110" as="targetPoint" />
            <Array as="points">
              <mxPoint x="290" y="210" />
            </Array>
          </mxGeometry>
        </mxCell>
        <mxCell id="aB4jjDkMeXqBvQ0BAeto-11" value="&lt;font style=&quot;vertical-align: inherit;&quot;&gt;&lt;font style=&quot;vertical-align: inherit;&quot;&gt;&lt;font style=&quot;vertical-align: inherit;&quot;&gt;&lt;font style=&quot;vertical-align: inherit;&quot;&gt;HTTP&amp;nbsp;&lt;/font&gt;&lt;/font&gt;&lt;/font&gt;&lt;/font&gt;&lt;div&gt;&lt;font style=&quot;vertical-align: inherit;&quot;&gt;&lt;font style=&quot;vertical-align: inherit;&quot;&gt;POST&lt;/font&gt;&lt;/font&gt;&lt;/div&gt;" style="edgeLabel;html=1;align=center;verticalAlign=middle;resizable=0;points=[];" parent="aB4jjDkMeXqBvQ0BAeto-10" vertex="1" connectable="0">
          <mxGeometry x="-0.1036" y="-1" relative="1" as="geometry">
            <mxPoint as="offset" />
          </mxGeometry>
        </mxCell>
        <mxCell id="aB4jjDkMeXqBvQ0BAeto-13" value="&lt;font style=&quot;vertical-align: inherit;&quot;&gt;&lt;font style=&quot;vertical-align: inherit;&quot;&gt;&lt;font style=&quot;vertical-align: inherit;&quot;&gt;&lt;font style=&quot;vertical-align: inherit;&quot;&gt;API&lt;/font&gt;&lt;/font&gt;&lt;/font&gt;&lt;/font&gt;&lt;div&gt;&lt;font style=&quot;vertical-align: inherit;&quot;&gt;&lt;font style=&quot;vertical-align: inherit;&quot;&gt;&lt;font style=&quot;vertical-align: inherit;&quot;&gt;&lt;font style=&quot;vertical-align: inherit;&quot;&gt;&lt;font style=&quot;vertical-align: inherit;&quot;&gt;&lt;font style=&quot;vertical-align: inherit;&quot;&gt;&lt;span id=&quot;docs-internal-guid-0c22cbb0-7fff-b8d5-7764-87dfb613ab5c&quot;&gt;&lt;span style=&quot;font-family: Arial, sans-serif; background-color: transparent; font-weight: 700; font-variant-numeric: normal; font-variant-east-asian: normal; font-variant-alternates: normal; font-variant-position: normal; vertical-align: baseline; white-space-collapse: preserve;&quot;&gt;&lt;font style=&quot;font-size: 11px;&quot; color=&quot;#330000&quot;&gt;OpenWeather &lt;/font&gt;&lt;/span&gt;&lt;/span&gt;&lt;br&gt;&lt;/font&gt;&lt;/font&gt;&lt;/font&gt;&lt;/font&gt;&lt;/font&gt;&lt;/font&gt;&lt;/div&gt;" style="ellipse;shape=cloud;whiteSpace=wrap;html=1;fillColor=#FFFFFF;" parent="1" vertex="1">
          <mxGeometry x="603.04" y="170" width="130" height="80" as="geometry" />
        </mxCell>
        <mxCell id="aB4jjDkMeXqBvQ0BAeto-14" value="" style="endArrow=classic;html=1;rounded=0;exitX=0.16;exitY=0.55;exitDx=0;exitDy=0;exitPerimeter=0;entryX=1;entryY=0.5;entryDx=0;entryDy=0;" parent="1" source="aB4jjDkMeXqBvQ0BAeto-13" target="aB4jjDkMeXqBvQ0BAeto-4" edge="1">
          <mxGeometry width="50" height="50" relative="1" as="geometry">
            <mxPoint x="604" y="273.5" as="sourcePoint" />
            <mxPoint x="710" y="276.5" as="targetPoint" />
          </mxGeometry>
        </mxCell>
        <mxCell id="aB4jjDkMeXqBvQ0BAeto-15" value="HTTP&amp;nbsp;&lt;div&gt;GET&lt;/div&gt;" style="edgeLabel;html=1;align=center;verticalAlign=middle;resizable=0;points=[];" parent="aB4jjDkMeXqBvQ0BAeto-14" vertex="1" connectable="0">
          <mxGeometry x="0.0446" y="2" relative="1" as="geometry">
            <mxPoint as="offset" />
          </mxGeometry>
        </mxCell>
        <mxCell id="aB4jjDkMeXqBvQ0BAeto-16" value="" style="endArrow=classic;html=1;rounded=0;exitX=1;exitY=0.5;exitDx=0;exitDy=0;exitPerimeter=0;entryX=0.003;entryY=0.468;entryDx=0;entryDy=0;entryPerimeter=0;" parent="1" source="aB4jjDkMeXqBvQ0BAeto-1" target="aB4jjDkMeXqBvQ0BAeto-22" edge="1">
          <mxGeometry width="50" height="50" relative="1" as="geometry">
            <mxPoint x="520" y="388.5" as="sourcePoint" />
            <mxPoint x="620" y="390" as="targetPoint" />
          </mxGeometry>
        </mxCell>
        <mxCell id="aB4jjDkMeXqBvQ0BAeto-17" value="Read" style="edgeLabel;html=1;align=center;verticalAlign=middle;resizable=0;points=[];" parent="aB4jjDkMeXqBvQ0BAeto-16" vertex="1" connectable="0">
          <mxGeometry x="0.0446" y="2" relative="1" as="geometry">
            <mxPoint as="offset" />
          </mxGeometry>
        </mxCell>
        <mxCell id="aB4jjDkMeXqBvQ0BAeto-22" value="" style="rounded=0;whiteSpace=wrap;html=1;" parent="1" vertex="1">
          <mxGeometry x="628.04" y="320" width="80" height="150" as="geometry" />
        </mxCell>
        <mxCell id="aB4jjDkMeXqBvQ0BAeto-23" value="" style="shape=image;verticalLabelPosition=bottom;labelBackgroundColor=default;verticalAlign=top;aspect=fixed;imageAspect=0;image=data:image/png,iVBORw0KGgoAAAANSUhEUgAAAR4AAAI1CAYAAAAASpW+AAAAAXNSR0IArs4c6QAAAARnQU1BAACxjwv8YQUAAAAJcEhZcwAADsMAAA7DAcdvqGQAADslSURBVHhe7d0HfFRlvj7wZ0pmJpMeEtITkhBKQgcBaSoK6tpZdRXXhmX16rq7/vXu7tXVu+6613V1m73rutd2RVEsKCISivTeCR1CQhIgZSZlMpn/eU/eaEAgbead9nw/99wz7+8cgQ3hyfuec973GDwaEBEpZJR7IiJlGDxEpByDh4iUY/AQkXIMHiJSjsFDRMoxeIhIOQYPESnH4CEi5fjkMsHlcqG+vv67zel0HtcWW53DqW8O7ZjDqdW0vdVqhc1qgc1mRaS22bS2xWLRN3Gs7XP7dnJyMnr37i1/ZwpXDJ4w4Xa7cejQIX0rLT2E3fsO4KC2r6wog6uxERFWG0wRYrPCoO0NZitgssKj7VuMFkDbi5rBrB0T52ifPc2N8Lga5L4RBre2tbTuIWryuLupAc3a5tI2T0sLTCYTUtPSkJGejnRtS9M+t+3tdrv8E1MoY/CEmKqqqu8CZu/+g9h/sBTlZWWoOVoJe3xvmKKT4LYlwhyTrH8Wm9Gi7h+7u74a7toKuOsqYHBWAc5KNNVUoMFRox+PjYtDZkbGcWHUr18/BlKIYfAEuV27dmHr1q1YtW4jdm7fpv2NGmGJTYbH3guGqNZgMcuACWSiZ9RcV6kHUnNtJcwNVVq7As6jh/Xj2dk5KCoqxMCBA1FYWMggCnIMniCzY8cObNmyBRs3b0VJyQ59yGNK7ANjQh9EJOXCZI+XZ4YOV9VeuI7shbn2AByH92hDw3rk5ffFgP79MGDAAAZREGLwBLjt27fr29Zt27FN28NohjU5F80x2YhIzA74nowvNB8rhevofticB+HUgkgM0wq04diA/v31YRmHZoGPwROAVq5ciRUrVmDdho1o8Rhg790HjfYMmBKyYY5LlWdRm+aaMrQcO6AF0SHUV+2Dq74OZ4waiZEjWzeDwSDPpEDB4AkQe/bs0cNmydLlcDa6YEsrRHOvfohIyJJnUGeJoZmpaivqD26GzRqBsaNHYcSIEfr1IQoMDB4/qq2t/S5stm3dgoScQXAl9odVCx3tx7Q8i7rL43ah8dBmGCu34di+jcjK7oMzx5yhh1B2drY8i/yBweMH69evx9Jly7F8+QpYYpPg7jUAlrSBMNkT5Bnkbe66SjSWboanYisclfvRv3Awxo0ZpQ/FEhMT5VmkCoNHkYMHD+q9m4XfLkN1dQ0sqYUw9B6AiF595BmkStPhEr0n1Fy+BZ7mJgwZNgKTz5qg94RIDQaPj+3cuRNz5s7D4uJvEJ89CC1JA2BN10LHFCHPIH9paarXA0hsTeXbMXDQMFx0wXkMIAUYPD4iboHP+XIeli9dgui8UTBnjIA5Pl0epUDTVFGChn1r0HBgPQYMGoqLL5jCAPIhBo+XiYf7PtcCZ82qFYjqowVOlhY4sbwFHixcVXu08FmHRi2ECgYOwiUXMoB8gcHjJRs3btQDZ8P6dYjMGYmIrJH6fCgKTs3Vh1C/dyWaD21EXn4BA8jLGDw9tG7dOj1wtm7ZDGv2SFi0zRTVSx6lYOd2HkX9rmVoLl2H7JxcXH7x+QwgL2DwdNPq1avxmRY4O0t26L0bETq8HR66xIXo+t1L4dq7HL1TUjD96h9j2LBh8ih1FYOniw4fPoz3P5iF5StWICJ7tD6sMkbGyaMU8jwtcO5cgvrt83HG6DG49uor9cXNqGsYPF3wxRdf6KFjTsqHKXcCr+GEMbfjCFw7i+Eq34YrLr8UF198sTxCncHg6YRNmzbh3ZmzUF5VDWOf8bCmD5JHKNw1lm5Cy55FSIqLwlXTLuPwq5MYPKdRU1ODD2d9hLlzv0Rk34mwF0zig3/0A2JOWP2OYji2F2Py5Mm49NJLOPzqAIPnFBYsWID/04ZV7sgkrZczAREJmfII0cm5juzXez+e2jJM04ZfU6dOlUfoRAyeE4ilRN/ThlUlu/fCpA2rxMVjoq6o37MczbsWIjszQw+gwYMHyyPUhsHTzsyZMzHro48RlXsGLPkTYbRGyyNEXeN2HoNLC5+ancv1C8/Tp0+XR0hg8GgqKirwyutvYk9pBYz558CSnC+PEPWMmIDq2v4VcrPScNMN1yMjI0MeCW9hHzyrVq3Cq2+8CXdMFqwDL9DfKUXkTeLp52YtfDzVB7Tw+SnGjh0rj4SvsA6eWbNm4b333kN00fmw950gq0S+4dxRjLrNczFt2jRceeWVshqewjJ4jhw5og+ttu3YBYvWy7Gk9JNHiHyrsXwb3DvmIT87HTNuuiFsb7uHXfCsXbtWD51GS4I+tOL8KlKtpaEWrm1fwlh3CLfcdH1YTjoNq+CZPXs23n77bf1BwOjCKbJK5B/OkkVwbv0KV2nDrssuu0xWw0NYBE91dbXeyxFLWEQWXgBbFh9rp8DQVLkLri1zUJCXjdtn3Ij4+NB7E+zJhHzw7N27F3/75zOoc5th04ZW5njezqTAIt4b36iFT4SjFPf96h7k5OTII6ErpINHvGf8r/94Go32dMQMu4zzrCigObYvgKlsDf7fL+9BQUGBrIamkA0eMaP88b88AXP6EMQMvVRWiQKbc+diNG6fj/+8/z4UFRXJaugJyeARd64ef/xx/dkc8YwOUTCp370ctetn4/7778fw4cNlNbSEXPAsX74cf//73xE18FxE9TtbVomCS8O+1ahZ8yF+8YtfYMyYMbIaOkIqeBYtWoRnn30WMUMuRmRu6P1lUXgRbzytXvYm7rzjDkyYEFpP1odM8IiZ5WKLP/MGWHqH9oU5Ch/NtYdRvfBFTL/malx44YWyGvxCInju/8/f4OCBffpF5Mg+Z8gqUWgQt9ur5/8DUyafheuuu05Wg5tR7oPWvf/vfhw5VoeCkRfDsekL/YEsolAiVkyIn/prfLVgCZ566ilZDW5BHTy/+OW9OHqsFqMuvAv9Rl+GnMKJqFv1PlxHD8gziEJH3Ln3YkPJATz66KOyEryCNnh+/Zv/0kKnGiMv+A/EJmXrtcLxP0F67jA4Vr+vj42JQo193O3YV34U//znP2UlOAVl8Pz+kUdw8OBBjDz/TiSkHr9a4OCzb0CSVnOungl3/TFZJQodkePvxJp1G/Haa6/JSvAJuuB54oknsG3rVi107kBS5kBZPd7wKbchLj5ZD5+WJqesEoWO2HN+gblz5+L999+XleASVMHzwgsv6O8sHzH1Z+idM0RWT274lJ/BbrXCuWYmPC3NskoUGsQF58TJP8cHH3ygv+E22ARN8Ih1dIqLF2Lo5JuRlj9KVk/NZI7QAuoORLib9J4PUagxx/RG/Lgb8cYbb2DJkiWyGhyCIng+//xzfPb5FyiaeC0y+4+T1Y5ZbNEYcf7PAEclHGs+kFWi0GFJ7ovY4dPw9NNPY8OGDbIa+AI+eL799lu88+776D/6cuQUdX3ulT0mSb8e5K7aA+eGT2SVKHTYsocjYdAULXyewZ49e2Q1sAV08Igv4gsvvYK8Yecjd2j3lyqNSczQej53oOHgBjg3fymrRKEjIn8SbBlFePqZZ1FVVSWrgStgg8ftduPPf/kreucMQ9+RF8lq9yWk5GHk1J/BsXMJnNvmyypR6DD0/xEazHF49rnn0dTUJKuBKWCD54EHfwePKRKDJnrv1a9JmYX6HbG6rV/DWbJYVolCh3HARThYWYNXXnlFVgJTQAaP+KIdOHBQC53rYIqwyqp3pOYOx7Bzb0Hdpjmo37NCVolCg9EWA1P/C/Dt0mUBfZs94IJn6dKlWLBwsT794cSnkr0lo99YDJr0U9Su+xgNB9bJKlFoiEjMRuTAqXjr7Xf0dccDUUAFT0tLC1574y1kFIxBTtFZsuob4tcfeOaVqFn1PhoPbZFVotAgFsKLzh6Cf7/1tn69NNAEVPA88LuHYbREa4Fwlaz4lrhbVjDqEtSu/j80VeyUVaLQYCo4D+VH6vDOO+/ISuAImOB58cUXsX/fPhRNuMbr13VOp98Zl6JP0TmoW/0+XEf2yypR8DNa7DBq4fPpZ5/pz8MFkoAIHrFWcvHCRT69rnM6A8ddhfS8kXCseR/NNeWyShT8LMn5iC06Xx9ylZcHzve234PH4XDg9X/9G1kDxvv8us7pDD7rp0hOK9DX8nE7j8oqUfCz5Y+HMT4Lb78dOEMuvwfPH/7wB5itscqu65zOsPNuRXxCqh4+LY0OWSUKfob887B15x7Mnj1bVvzLr8Hz0ksv4cCBUv3WtsrrOqczYurtiI6MglMbdnncLlklCm7GyFgY+k7RLzSLt+z6m9+CRzxfULxwMfqPudwv13VOxWiKwPApt8Pices9H6JQYU3tj8RB5+nXe+rr62XVP/wWPC+/8oo+eVPc0g40+nIaU38GY/0xONZwLR8KHaa8SXDCjlmzZsmKf/gleD799FP91rl4M0SgiozppYeP+8g+ONYHxriYyBuaM8biE+3fYElJiayo55fg+fiTz9Fn8LlIziqSlcAUk5iur+XTVLoJjk1zZJUouEX0ykFi/3H4aLb/1qdSHjzi3eau5hb0HREcr2ON752rh0/97mVwbP1aVomCmyH7TGzdXuK3JVOVBk9paSmWLluBfmdcBqs9TlYDX6+MAfr6zY5t8+EsWSSrRMHLaIuFUQufDz6aDZdL/d1bpcHz3HPPIzG9H7IGTpCV4JHSZyiGn3cr6jZ9ofV+lssqUfCKzBuL+pYI/ZqrasqC5+uvv8auXbv0SZnBKr1gDAafdT1q189Gw/61skoUvDxZZ+Kjjz/RX5CpkrLgee/9D/QlTMU1k2CWXTgJA8ddjZrVM9FYullWiYKTJaUf7JlFmPWx2ju3SoLn5ZdfRrPHFDQXlDuSN3SKPqtdX07jsP9uSRJ5gzFnHFasXKW/LFMVnwfPoUOHsKB4IQaOvVJ/KjhUiCGjeCSgdTmNfbJKFHxM0Umw9BmHmbPU9Xp8HjzPPfecvsh6at4IWQkdYgXDjL5n6OHTXF0mq0TBx953PKpqnJgzR83zaj4NHnH7fOfOXdoQ60eyEnoGTboOvTMG6Gv5uB1HZJUoyBhN+rM9H340G9XV1bLoOz4NnldffVV/Ojk+JU9WQtOwc2cgITG9dTmNhjpZJQou1ozBMEYnY+HChbLiOz4LHpGa27aXoM/gybIS2oZPuQ3RUTF6z8fTHNgvUyM6FU/qEHz59QJ4PB5Z8Q2fBY94N1ZscjaSswfJSmjTl9M47zZYDdDDhygY2TKHoqEZPu/1+CR4mpubsX7jFn0R9XCiL6eh9XyMDTVcy4eCl9brmfPVN7LhGz4JHvHcjtUej/SC0bISPsRyGiOn3o6WYwfhWPeRrBIFj8icUSgrK8Patb57Ot8nwbNyzXrkFJ0tW+EnOiFdX0K1qWwbHBs/l1Wi4GAwW2BMH4LPv/TdagxeD54333wTLR4DMgeMk5XwpC+noYVP/d4VcGz5SlaJgkNkzhnYtGEtdu70zYsuvR48i5eu1Hs7Ji01w52+nMaUn8GxfQGcO4pllSjwmezxiMwehjlzfdPr8WrwiFdnOB21yOwf3r2d9vTlNKbchrrNc1G/a6msEgU+q9brWVw8HxUVFbLiPV4NnrnzvkF24VmwRcXLCgnpfUdjyNk3oHbDp2jYp24iHlFPmOPSEZ1ZhC/mzpMV7/Fa8Ij7/lUVZeztnELWwIn6K5pr1nyIxtKNskoU2MzZZ2DeV1+hsbFRVrzDa8EjFvpKzRupL5BOJ5c75Dz0H305ala9j6by7bJKFLjEu9cj4lIxb553ez1eC549+0qRlj9KtuhUxGJoeUOnonb1TLiq9sgqUeAypg/D18WLZcs7vBI8H3/8MWAwIDV3mKzQ6QwYOw1Z/cagTguf5mOlskoUmKzphSgvPYDdu3fLSs95JXgWL12u93YMRpOsUEeKJk5HSlah/qZSd12lrBIFHoPZCnvmICz51nt3ZXscPA0NDThUWoqUPuztdNXQyTcjMSlLD5+WhhpZJQo8xpRCLNE6GN7S4+CZOXMmbFEJSMocKCvUFcPOuxUxUXFwaMMuj6tBVokCizV1AOobGrF+/XpZ6ZkeB8/yVeu1YdZI2aKuMprMWvjcBpvJqPd84GmRR4gCS0RaERZ/u0y2eqZHwSOWNq0oP8C7WT1ksUXpTzebmur0ng9RIDL17q+/icLtdstK9/UoeMQUiYSUfMQkZsgKdVdkdCJGTLkdLTWH4Fg7S1aJAoclKRcGSxSWLet5r6dHwbNm3aawXHPHV6IT0vTwcR3eAcfGz2SVKHB4kgdgyfKVstV93Q6eTZs2oba6itd3vCy+dx99FcOGvavh2DxXVokCgzWlPzasXdvjN1F0O3g+++wzJOcMgTUyVlbIW8RyGuKaj2NHsb6kBlGgMMenw94rA6tWrZKV7ul28Gzeuh2Z/cbKFnlb23IaYhEx565vZZXI/9yJBVi8rGfDrW4FT0lJCVxNTbyb5WNty2nUbfgM9Xt79hOGyFusqf2xZcNaHDnS/RdYdit4vv32W8QlZ8sW+VLbchq1a2eh4eAGWSXyH/Gu9diUHL0D0l3dCh4xzBJvCCU12pbTqF39PhrLtskqkf+0xGRiy7buL+3SreA5fLgy5F9LHGj05TSGnY+6NTPRVOm9WcJE3WFKyNQ7IN3V5eA5cOAA6h3VSEwrkBVSZcCYacjqf6Y+tcJ17KCsEqkX0asP9u8u6fZt9S4Hz+LFixGXnMO3SPhJ0YRrkZo9SJ9a0Vzr/UW4iTrDaI1GdO8c7NixQ1a6psvBs3HzdvRK7y9b5A9DzrkJvbS/dH0tn/qePchF1F0tMRnYul1R8JSVVyAhra9skb8MO/cWxMUkwinW8mmql1UidSKS+mDt+u69uKBLwXP48GE4644iMa2frJC/6MtpaOFjM5v1no+npeczhom6wpKUh9J9u1FbWysrndel4CkuLoY9NklfxoH8L0Isp3HerTA317eu5UOkkFgSNSq5e8/zdCl41q7biKSMAbJFgUBfTkMLH9SWczkNUs4Tn4P1GzfJVud1KXjKDlfyNnoAEstpDD/vNjRXlMCx4VNZJfI9S3Ie1nXjOk+ng2ffvn1oanDw+k6AEstpiPBp2L8Wjs1fyiqRb4nrPGUH98HpdMpK53Q6eDZu3AhThBW26ARZoUDTK6O/vpaPo2QRHNu+kVUiHzIYEJOWj+3bu/YUc6eDRzwoFJuUI1sUqHrnDNF7Po6t8+DcuURWiXzIFo9Dhw7JRud0OnjKyisRy/eiB4X0vmdgyNk3om7j56jf2/NlKolOp0ULngMHu/ZG3E4HT3WdE/a43rJFgS5r4AQUjr8GtWs/QsMB77wLiehkTPZE7D/oox5PY0Mjohg8QSV3yLnoP+YKuZzGVlkl8i6TPQHlZT4InqNHj6LZ1cAeTxDqO+JHyB9+IepWz0RTxS5ZJfIeU1QCaquPorGxUVY61qngEUthiOARD6tR8BG9nqwB4/W1fFxH98sqkXeImermCEuXLjB3KnjEHS17TJJsUTAqmnAN0nKGwLHmAzTXlMsqkXdYY3p5P3j27NmrPx1LwW3IOTeiV0ofONZ+ALfzqKwS9ZwYbnk9eA5XHeP1nRAxbPItiIvtpfd8WpocskrUM25r157l6VTwVNfUISo2WbYomLUtp2G3WPTw8bhd8ghR9xkjE7r0LE+ngqexgXe0QkmENUoPnwh3ox4+RD1l1IZaZV24pd5h8JSXl8PdzGd4Qo24QzlcCx+DoxJ1az6UVaLuEc/yiA7KsWPHZOX0OgyeiooKuBqdsHOoFXL05TS08HFX7Ubdhk9klajrxNPLQmlp54ZbHQaPWO7UFhUvWxRq4vTlNG5B04H1cGz6QlaJusZgMuvP8jQ1NcnK6XUYPOL9yAye0CbeGiKWUHXuWgLHtvmyStQ1ZovNe8EjFvgxRdhki0KVWE5j2Lm3wrH1azhLFssqUeeZvB08Isko9H23nMamOajfs0JWiTrHqHVQvBY8DQ0N2tiNwRMuxHIaYnpF7bqP0XBgnawSdcxotnoveOobmvi64jDTZ3Drcho1q95H46EtskrUAW/2eBobGTzhSCynIbZafTmNnbJKdBoma6eXxug4eLQEM5ojZIvCiej1ZGtDL7GWj+sIl9Og02sxefF2elOTCybtF6TwpC+nkTtUf1Npc02ZrBL9UIvRi9d4mlxiqMUeTzgTd7qSUvP0eV1uxxFZJTqeIcKK+gYvDbWaXVqPh9d4wt7Qc2cgLi5ZX8unpbFOVom+ZzDb9JtRndFh8Li04OE1HjIaxXIaM2C3WFuX02ju3DcYhQ+j1uNp6OTFZYNHIz+f1M0zbkXhhOuQXjBaViic1dcdwco5z6JRG4Kb04pgMGg/u4ym7/bQ9oYf7LVjBu2ztjecsBf1tuOt+1PUKOA1HS5B0pEVeOThB2Xl1DoMnhtuvFl/lD4ld5isULirO3oIxe/+N3a5R2oBouWHoUXrOmub2Ouf3d/XtM8GWTPo7RZtrx2Xe4NH7kXb49Z+9da9qANt35oGePRAag2j1n37z+1CTLTbhVb7EGxr/3D//Tmt++9/zROD8qQBK48dV5P770NZnte+Jr54IcSrwfPTn16PUT/6OZKzimSFCJjz6n2Y77wSTo/vJhBrcaMH0omh1RpkrZ9b96cONn1/XPD98DwRkuKzSZwnz20fnK3HWz+f7PcQNX0TgSn3bQF6Wnr4GLVQlYH03b5dcGm1tiBsC8q2EGttt9ZaN/lr6Me1z20BJ3+tk9a+27f/b9vtT3nsh79GU9lWZDbtwAO/uV/+Dzy1DoPnuuuuw+iLf4WkzIGyQgR89dYjKD4yHkc9GbJCJ2oLzu9DSoaXDLUf1PX98fXvPstAPNk539Xbh6b8Pb6riXPbf9a34z9/1/tstxcB2hXRvbLx4lOPydapdRg8N910MwZPvgWpucNlhQhYOOtvWHCgL8o9BbJCocfzXTAdF3qGk4Se3nbjrIT5eOX5f8j//tS0/tLpRVisaG6qly2iVvaoOFgNfEtFaBORYtLiJAIu2NAEOxoQjXpPHByeBNR5eqHG0xvVnlSt55sOK5ywaHnRGR0Gj9UqgqdBtohaRcXEwWZwyhYRYNF+ENmsnXvmr5PBwx4PHc8SGYtoM78v6HuixxNp69wSOh0Gj82mBY+LPR46njUyBpEm9njoexY4EB3lpeCJFMHDHg+dwGqP1X7C8RoPfc+qDb1jo70UPHa7HU0N/Aaj44mhltnD7wv6ns1Qp+dFZ3QYPFFRUXA18huMjieGWsZmThal7+lDreho2Tq9DoNH/EIMHjqR1R4HGAwwo3OTAin0WVDv7eDhNR76IZM1hs/ykM6IZv2pH68FT2xsLO9q0UlF2LTgAe9skdYDlt8HIi86o8PgSU9Ph9vF7jT9kM0eq4/riSwGpz4zLS0tTVZOr8Pgyc3NRYu7WbaIvhcZFcuhFulEj8cDE1JSUmTl9DoMHovFAqPJhKb6WlkhahUVHYdII4daJHo8DhiMZtnqWIfBI0TZo1B7tFS2iFqJhwijTLzxQOKOlhM2a+eXSO5U8CQkxKHuCIOHjiceIuS0CRKiDEeREB8jWx3rVPCIC8zHDu+RLaJW4iFCTpsgIdZwGFmZnV8UrlPBk5eXh5rKfbJF1EqfNtHC4CGtx4Mj6Nu3r2x1rFPBU1RUBGdNpWwRtbJFxcPg5rSJcGc3HNOCxI3BgwfLSsc6FTx9+vRBS0sz72zRcSKsdhiMEYgALzCHs2hUoUX7LhA50VmdCh7BZuOdLfohTpugaEMlTJbOzUpv0+ngiYmx884W/UCETazLwztb4SzaUIWkxM5NlWjT6eDpnZyEYxV7ZYuolZg2wTtb4S3WUIE+Wamy1TmdDp6cnBxUM3joBPboWP2pVQpfUahCfn6+bHVOp4Nn0KBBcFZXyBZRK3t0HOxGXlwOV1GGI/p+2LCuveK808EzZMgQ3tmiH7BGxiLKzGs84Uq/o2W0ITs7W1Y6p9PBI0RH8c4WHc9ij4GNE0XDlrijldwrQbY6r0vBk5+fh0M7V8oWUWuPh2vyhK94QxkK++fJVud1KXjGjx+Pin0bZYtI3NWK47SJMBaDwxgxYoRsdV6Xg6e+7gganTWyQuHOKqZN8G0TYUu80qarF5aFLgWPkNw7FZUHt8gWhTuT2QKD2a6vx0LhJdmwC/aYBNg6+dri9rocPIUD+uHwnnWyRQSYrdGcNhGG0ozbMXTQANnqmi4Hz4QJE1BxYLNsEQERkXx6ORwlaT2es88+W7a6pus9nsJCGA0GHCvfLSsU7jhtIvzEGcoRYfR0aSmM9rocPEJqSgqv89B3omLiONQKM0mGPUhL69r8rPa6FTxDBheifPda2aJwJ15zY+ei72El1bgDY8/o+t2sNt0KnnPOOQfHDu9GUwNvo5KcNsFF38NGJGoQjUpccMEFstJ13RtqpaZq3et4VB3gcItag8fKaRNhI8m4GxGR8Z1+XfHJdCt4hIL8Pijfu162KJxZo+Jg8fAaT7hIMe7CqKEFstU93Q6eSZMmcfoE6cSi7yZOmwgLRjSjF/Zi6tSpstI93Q6esWPHwtPiQiWf6Ql7Nrt424QYanlaCxSykg27YbZFY8CA7j042KbbwSMUFQ7E/i2LZIvClsEAQ0Q0n+UJA2mmHRhW1Pn3Z51Kj4Lnsssuw6Fdq7g4GGk/Bfm2iXCQhF0499xzZav7ehQ8/fv3R1x8Eg7uWCYrFK70O1vs8YS0BMNBWM1dX+b0ZHoUPMKYM4bjwNbFskXhSp82wR5PSOtjWo3BgwbKVs/0OHiuuuoqOKoPo+rgNlmhcKRPm+DSGCHLhlqkYDuuvvpqWemZHgeP3W5HelY2Sks43ApnkVqPh08vh65M4wbEJaZ26TXFp9Pj4BHOmTgOpTtWwNXIb7xwJRZ9tzN4QpIRbuQY12LquRNlpee8EjxizobFZtfCh72ecCWe5eHbJkJTunEzTCYTrrjiClnpOa8Ej1CQl4WDJStki8KNWHs5gtMmQlK2cR2GD+ram0I74rXgufDCC1F9eDeOlpXICoUTfdqEm6sVhBp9XWUcw7Rp02TFO7wWPOJNo0nJKTi0c5WsUDix2KIBjwsGtMgKhYIM4yb0TklFQUHPJoWeyGvBI5xz1gQc3L4UblejrFA4MXLaREiJM5QhxVCCn0z7kax4j1eDR0yhMJtNevhQ+OG0idCSbtgCS0xvTJzovbtZbbwaPMKZY0Zh57ov0OJulhUKF63TJnidJxSIBwbFszuXTBknK97l9eC55ZZbAHcT9m76RlYoXIi1l9njCQ3iFrrREoMrr7xSVrzL68EjjB41HLvXf4XmJi4AHk44bSI0iAcGs4wbMXn8UFnxPp8Ez+233w543Oz1hBkxUTTKzOAJdpla6FhMzbjxxhtlxft8EjzCqOGDsWfD12isr5EVCnXiIUK+5ia4mdGEXONKnDmyEBaLRVa9z2fBc+edd+r7fRsX6HsKffq0CV7jCWo5xtUwG1t82tsRfBY8woihhdizcR7q647ICoUy8fSymdMmglakoRp9tOAZN7I/EhISZNU3fBo8d999NwxGE/Zu5LWecMBpE8Etx7AGbkToa2z5mk+DR9Cv9Wz8Go5j5bJCocoUYdX+v0f7puIzXMEmzlCuD7MmjR6AzMxMWfUdnwfPXXfdBavNzjtcYcJoieazPEFIhE5LRAKuv/56WfEtnwePcOHUyVqvZz5qqg7ICoWqCCsXfQ82SYY9SDHswJUXn4VevXrJqm8pCZ4f//jHSEhMYq8nDFjFou8MnqCSY1yD2IQUJdd22igJHuGKyy7Gvk0LcJjvWw9pnDYRXNIMWxFvKMVtN/pmasSpKAse8RKwvgUF2L5yNlpa3LJKoSZanzbB4AkWuaaVKOzfB6NHj5YVNZQFj3DPz3+O+poKlKz6VFYo1Ihb6tFmPr0cDMQQy26sw8/v+g9ZUUdp8CQlJWHi+LFa8HzCJVJDlAgevm0i8EWgAXnGFZg8YaT+71I1pcEjiGUzEpJSsYO9npAk5mtxqBX4RG8nOtKEO+64Q1bUUh48wjVXXYEjpdv1pTMotHDaROATC7jnG5fimisvkRX1/BI8EyZMQN++edixcjbqjpbKKoUCMVHUyGkTAcsCJwaavkG/fgX6m2H8xS/BI9x9110wmyM45AoxBqP2LWU0wQSXrFAg6WdcCFtEC+75+d2y4h9+Cx7xhOQlF52P0pIVOLBtiaxSKDBZuOh7IBIv5ksxluC2G65U9oTyqfgteITLL78c/fv1x7blH6HBcUxWKdhFiLdNcNH3gBJrOIz+xgUYd8YQ/Zk6f/Nr8AgPPviA9odwo2Q1h1yhQiyByjtbgUWETnR8Cn71q1/Kin/5PXjEy+CvvvIKfc2esl2rZZWCWWRUHIdaAURc14kxVeP3/3WPrPif34NHmDp1KoYOHYoNC95E7RHe5Qp2MXEJsBn4EGEg6G3Yqa+hPH3aFCXr7HRWQASP8Otf/xox0XZsLP4353IFOatdTJtg8Phb663z+eg3oBDTpk2T1cAQMMEjPPBfv0Ft1X5sXvSOrFAwsmlDrUgjg8ffBpgWINpuwcMP/kZWAkdABU9qaip+PO1yfd0ePtUcvMTTyxZeXParbONabZi1C/ffcwuM4tmqABNwf6JLL70Uw4cPx+bF7+Lwvg2ySsFEzNfitAn/EbfOBxrn48IpEzFkyBBZDSyBF4Wa+++/H0nJydhY/L9w1lTIKgULa2QsjM18jscfbKjFMPPnyM7Ows033yyrgScgg0f421//ipbmBj18KPgYzFaY0ShbpMpQLXSSYo3406N/lJXAFLDBI57vefQPv0fF/k3YvOQ9WaVgwWkT6g0zzUaCpQ5/+dPD+r+fQBawwSOkp6fj1ltvxe51c7FvM1+FHEwiIsW0CQaPKoOMX6KXqQx/+N29Pn8LqDcEdPAIkydPxjnnnIONC99C1cFtskqBzmbn2suqiOkQacatuPeuG5Gfny+rgS3gg0e47bbbkJ+XhzVfvQTHsTJZpUAWFRPPoZYCucYV+pPJP732Spx55pmyGviCIniERx55BAmxkVj+6T9RX3dEVilQRccmINLI4PGlFEOJ1tsp1qccXXKJ/1YT7I6gCR7hr3/9K6KswAotfJrqa2WVApH+tgku+u4z0YZKDDd9pL+W5qabbpLV4BFUwSP84x//gBn1Ws/n72h28XZtoBLztWycNuETYhmZ8aZ/IS+vL375y8BY5qKrgi54hGeefhqepmos/fgJeDwtskqBhNMmfGey+XkkJPbCH//4iKwEn6AMHuH5555Ds7MKiz/4H1mhQKK/baKFweNtE82vw24Fnn36n7ISnII2eISXXnwBaKzGovcflRUKFGZLJAxuBo83TTS/gShU4fXXXpWV4BXUwSM899wz+k/WRe8H9iPi4cgQEaW/sZJ67hzzC0iw1OKtt96SleAW9MEjPPXUP2AzNmLh/wXvmDcUmSzRsBo4WbQnxGJeU8xPISXBgtdff01Wg19IBI/wt7/9FdHWFhS/93tZIX+zRHLR954Qt8wnm59Dn6xUPPvM07IaGkImeIQn/vIXxEUC8/51v6yQP0VG8z3q3ZVo2I8JpjdQVFSEP//5MVkNHSEVPMLjjz+OIUX98Olzt6Gmcr+skj9ExyRw2kQ3pBq2YbTpPYwdOxYPPPCArIaWkAseQTxUddVVV+nXfPZsnC+rpFpUbALsfIiwS7KNazDM9Ik+DeKeewLndTTeFpLBI1xxxRW4++67sWXxu1g7L/hvPwYj8SxPFKdNdFpf4xIMNBXj6quvDsppEF0RssEjjBs3Dg8//BCOHtqKJR/+GfB45BFSQQSPjRNFO2WI+Uv0jViDO26/RX+1d6gL6eARCgoK8OTjf0JkhBvz3vxPHDm0Qx4hXxPztTht4vTE8rBjIt5HfvQB/P6h3+Kss86SR0JbyAePEBcXhyf+/CgGDeyLpR89gf1bFskj5Euix2Nq4XM8pyLe8jnR/BqGZnnwzD+f1H9IhouwCJ429957L0aMGI5Ni97G9hUfyyr5itFkhsHNFQRORqyjM8L0ES4670w89thjsNls8kh4MHg08nPYWLhwIV5+7U0kpvXD0HNuQIQ1Sh4hb/vslXsxz/lTNMEuK+Et3nAIRaavkGh3475f3I7BgwfLI+ElrHo8bSZOnIjnnv47Go7sxjdv/w6lJSvkEfI2s5Vvm2iTZ1yGsaa3MGpgCt54+amwDR0hLINHsNvt+gTToYMGYN3817Fe27iqofdZueg7bKjDKNNM5JtX67fKH/7db+WR8BWWQ60TlZSU4E+P/x3NTfUYNHE6MvqNlUeop5Z/+Rq+3hGLgy1FshJeMgyb9KFVdEIK/vTw/ejdu7c8Et7CtsfTXt++ffHqi08jJysdG4r/V3+bRYPjmDxKPRETmxC2PZ4hps+00JmL8WeegZef+QtDpx32eE6watUqPPPi62h0HMWQs25A5oDx8gh1x95NCzBn4WZsdJ0jK6Gvl2Efhpo+RXR0FO675zYMGjRIHqE2DJ5T+OMf/4jtJbuQmFagDb+uQ2RML3mEuqJ8zzrMnfsVljVcJCuhywSX/nK9bOM6jB8/HnfddZc8Qidi8JzG1q1b8cTfnoGztgqF43+C3CHnySPUWdUVezH3ozewoP5qWQlN4sV64tmcuF5puO+X/xE0b/T0FwZPJzzzzDNYtmI1ouJStAC6Wu8FUec0OqvxxVt/wtz6m2UltKQatmOgaT6sEQZMv+oSXHzxxfIInQ6Dp5PEl+n+++9HaWkpemcPRr/RlyEuOUcepdP59IW7MKfp57IVGhIMB1FgXIQ4w2FMHDdKXwmBOo/B00WbN2/G359+EXXHDiMtfyT6nXE5ohNS5VE6mU+fvwNzXMH54rkTRRqq0df4rX6bPDk9Dw/85z28W9UNDJ5u+vDDD/HJFwtQX3MYWQMnoGDUJYiMTpRHqb3PX70P8xzXoBHRshJ8xNs787XAyTcugyUmFTOuuxyTJk2SR6mrGDw99MYbb6D42zVoqKtC7uBzkT/iQlhswfsPzBfmvvUHfHNkEmo8KbISXLKNa9FPG1bZ7NG4ZtqF+NGPfiSPUHcxeLzk2Wefxcq1W+B2NSB36HnIGzoVJrNFHg1vCz96CvP356PCkycrwSHdsAV9Td8i2uLCZRdN0ZfTJe9g8HiR2+3Gk08+ic3bdsFgNKPv8PPRZ/BkeTR8rZr3b3y11YoDLYE/KdJuOKYFzma9lxNpNeHcs8aF/DKk/sDg8YGamho899xz2Lx1h9brsSJr4Hik5o1EbK9MeUZ42b7yU3y2rAI7WwJ3DlyyYTfSjZuRZtiKyNgUXH7RZFxyySXyKHkbg8fHXnrpJSxdvhoNzhokZQ1CRsFo/W6Y0RQhzwh9B7YuweffrMV6V2D1/sQcslTjNmQaNyES1UhNS8d1V1+KMWPGyDPIVxg8iojFx2bNmoWqo3XaMMyEjH5j9ACK750rzwhdlfs344s5n2FpQ2A8XJdgOKD1bLYhw7gRMMdg7PC++vWbzMzw7JH6A4PHD8ST0KvXb0Oj8xgSUvsiXfSCtKFYhDU0V+mrPVKKLz94Cd/U/0RW1DOhCWla7ybDuAWxKENCcjoumToBF10U+nPIAhGDx49Wr16Nd999F+UVx+DxuLVh2Fi9F5SY3k+eERpcjU58/q+HMbfhFllRw6yFTZJhD3oZ9yHFsB1WiwVjRgzEj3/8Y2RkZMizyB8YPAHi5ZdfxvIVq+B0OvW3M6TkDkNSxgD00rZQuC3/6fN3Yo7rF7LlO+LJYnGhWCxNIUIHJivy+6Th7Inj9bdzUmBg8AQYETyvv/461q7biIYmFzxul35Rund2kR5CUXHB+Xj+py/8B75ouhseH6w9F2so13o0JUgy7kUcDsFljENOZhLOO3s8LrjgAnkWBRIGT4CbO3cuFixYgIPlR+Gqr0VkbC/9elByVlFQDcnmvP5bzKudhgbEyErPJBn2orcWNinGnfpL8SJjkzBmaL7+9tihQ4fKsyhQMXiCSEtLC9555x0sW74KR49Vo6W5CfFpBcgsOAMJqfmITkiXZwaeee8+hvkVY1Ht6fqEWhEsMYZKbatAqhY08dgPU0Qk+vXNwcTxZ2LyZD6kGWwYPEGsvLxcvzi9afNmbYjWCHez9pM/OhExvTKRkJKH6MR0xGibWEfI3xZ/8jy+3pOFw55TL5Bl0AZi0SJg0Boy8cYyRGufzVo/yWyNQnZGbxQVFurXapKSkuR/RcGIwRNCGhsb9TtlK1euxO49+3Gs1qm/OcPtaoRdG4rEJGYiPiVXDyMRSvYYdf941yx4F3M3GrC/ZYjeFheBWwOmUguYQ9rnCthQgxaTHVHRscjNTEa/gnx9veJCLWwotDB4woAIpOXLl+sL2e/dtw/VNU64mrQekrsJJlOEftfMFGHTnyNq3aJgsdlh1oYzZotN27S9dlzfa22huakBzS5t04LtuM/6vvWzS2yNIvhEXfv9Wgz6fyuWmIDRgujoGGSmJyEvL08Pl+HDh8NgaD2HQhuDJ4yJa0Y7duzA/v37UV1drc8xq6urg8PhQH19A5yNzWhsaoar2a0N45r1SbAt7mZ9NUYtIbT/M8JoNMFgFHujFmJGRIjNbILNatQ2KyIjI/UtKioKBQUFSElJ0YNGnE/hi8FDRMrxxw4RKcfgISLlGDxEpByDh4iUY/AQkXIMHiJSjsFDRMoxeIhIOQYPESnH4CEi5Rg8RKQcg4eIlGPwEJFyDB4iUo7BQ0TKMXiISDkGDxEpx+AhIuUYPESkHIOHiJRj8BCRcgweIlKOwUNEyjF4iEg5Bg8RKcfgISLlGDxEpByDh4iUY/AQkXIMHiJSzufBs2bNGvmJiKiVz4Pn22+/lZ+IiFr5NHg2bNiAxYsXo6GhQVaIiHwcPIsWLYLVamWvh4iO47Pg8Xg8WLp0qd7b+frrr2WViMiHwSNCx2Qy6Z937tyJQ4cO6Z+JiHwWPAsWLPju2o7FYuFwi4i+45Pgqaurw/r162ULaGpq4nCLiL7jk+ARwyybzSZbrUQYbd68WbaIKJz5JHjmz5//g1vootezcOFC2SKicOb14CkrK8Pu3bv16zriVnrbXmxLlizR73YRUXgzaEHg1ST47LPPYDS25pnT6cQHH3yAG2+8EQaDQd9EAE2YMEE/TkThyevB015VVRV+9atf4V//+pesEBH58Ha6IHo4HFoR0YkYPESkHIOHiJRj8BCRcj4PHoHhQ0Tt+TR42jB4iKg99niISDkGDxEpx+AhIuUYPESkHIOHiJRTEjxERO2xx0NEyjF4iEg5nwZPGwYPEbXHHg8RKcfgISLlGDxEpByDh4iUY/AQkXJKgoeIqD2fBo8gwoc9HiJqz+fBIzB4iKg99niISDkGDxEpx+AhIuUYPESkHIOHiJQzaKHg01S4+eab8dhjjyElJUVW/Ku4uBgVFRWy5XuZmZkYM2aMbBGR4PPgmTFjBv7nf/4nYIJn+vTpiBowWbZ8L62lFI/890OyRUSCz4PnlltuwaOPPorU1FRZ8S8RPPHjZ8CSlCsrvuPYNp/BQ3QSPr/GI/g424goyPDiMhEpx+AhIuUYPESkHIOHiJRj8BCRcgweIlKOwUNEyikJHiKi9nwePAJ7PETUHodaRKQcg4eIlGPwEJFyDB4iUo7BQ0TKMXiISDkGDxEppyR4iIja83nwCOzxEFF7HGoRkXIMHiJSjsFDRMoxeIhIOQYPESnH4CEi5Rg8RKSckuAhImqPPR4iUs6ghYJPU+HBBx/EtGnTMGLECFnxr+nTpyN+/AxYknJlxXcc2+Yjvq4EN990g6z4XmFhofxEFLh8Hjy/+93vcPnll2PkyJGy4l8qg+fY4ldx9Eg9IiMjZaWruvZXY3Ts0YOe4UOBzufB89BDD+HSSy/FqFGjZMW/VAdPZWUjljRfKyu+dYH5SQYPBQVe4yEi5Rg8RKQcg4eIlGPwEJFySoKHiKg99niISDmfB4/A4CGi9tjjISLlGDxEpByDh4iUY/AQkXIMHiJSjsFDRMoxeIhIOSXBQ0TUns+DR2CPh4ja41CLiJRj8BCRcgweIlKOwUNEyjF4iEg5Bg8RKcfgISLllAQPEVF7Pg8egT0eImqPQy0iUo7BQ0TKMXiISDkGDxEpx+AhIuUYPESkHIOHiJRTEjxERO2xx0NEyvk8eAQGDxG1xx4PESnH4CEi5Rg8RKQcg4eIlGPwEJFyBi0UfJoKb775JsxmM6699lpZ8a/p06cjfvwMWJJyZcV3ji1+FZWVjVjSrOZ/+wXmJ/Hggw+isLBQVsLDunXr8L//Oxtutyz4mMUC3HXXTcjMzJQV6iqfB8+///1vGI1G/R98IGDwhJ6ZM2fijTe2YNmyaVoPW1Q82l58W7dubTVvmTRpNh56aFrYfZ29SclQi0iFw4cLUV4utiKUlQ3StsHaNgSHDoltqNc26jmfB4/AazxE1B4vLhORcgweIlKOwUNEyjF4iEg5Bg8RKcfgISLlGDxEpJyS4CEias/nwSOwx0NE7XGoRUTKMXiISDkGDxEpx+AhIuUYPESkHIOHiJRj8BCRckqCh4ioPZ8Hj8AeDxG1x6EWESnH4CEi5Rg8RKQcg4eIlGPwEJFyDB4iUo7BQ0TKKQkeIqL22OMhIuV8HjwCg4eI2mOPh4iUY/AQkXIMHiJSjsFDRMoZtFDwaSosXLgQixYtwm9/+1tZ8a/p06cjfvwMWJJyZcV3ji1+FZWVjVjSfK2s+NYF5ifx4IMPorCwUFb8p7i4GBUVFbLlW1u2bMHSpW58+unDsuJbP/nJH/HQQ9MC4uscrNjjIZ94/vnnUVbTpGSra3DD7XbL35mCgc97PIsXL8Y333yDBx54QFb8iz0eNcTX+Zqf3YfsvH6y4jvvvPAk1q1yY86cR2TFt9jj6TklPR4iovZ8HjwCh1pE1B6v8RCRcgweIlKOwUNEyjF4iEg5Bg8RKcfgISLlGDxEpJyS4CEiao89HiJSzufBIzB4iKg99niISDkGDxEpx+AhIuUYPESkHIOHiJRj8BCRckqCh4ioPfZ4iEg5nwePwOAhovbY4yEi5Rg8RKQcg4eIlGPwEJFyDB4iUo7BQ0TKMXiISDklwUNE1J7Pg0dgj4eI2uNQi4iUY/AQkXIMHiJSjsFDRMoxeIhIOQYPESnH4CEi5ZQEDxFRe+zxEJFyPg8egcFDRO2xx0NEyjF4iEg5Bg8RKcfgISLlGDxEpByDh4iUUxI8RETtscdDRMr5PHgEBg8RtadsqMXwIaI2DB4iUo7BQ0TKMXiISDkGDxEppyx4iIjasMdDRMoxeIhIOQYPESnn8+Bpw+Ahojbs8RCRcgweIlKOwUNEyjF4iEg5ZcFDRNSGPR4iUo7BQ0TK+Tx42jB4iKiNkuARvR4GDxG1YfAQkXIMHiJSjsFDRMoxeIhIOQYPESmnJHiIiNpjj4eIlGPwEJFyDB4iUo7BQ0TKMXiISDkGDxEpx+AhIuUYPESknJLgISL/ET/0GxsbZSswGLQ/lM+7InfeeSd+85vfICcnR1b8Z/r06UgYP0O2fEd8UZ3b5qOyshFb3RNaiz422vQeHnzwQRQWFsqK/4iv87U/u0+2fGvx3NlYt8qN1auv0XrXouLR9uJvoHVrq3nLpEmz8dBD0wLi69wZLS0tuOGGGzB69Gjtzz4Jw4YNk0f8R0nwrFmzBrm5ubDb7fqwSxD7EzcVnnrhNRw6uE+2fKve6UBNXRMSE+Jlxfd+cdetyMzMlC3/eeW1f2H/vr2y5VsOhwNHj7gQG5sgK75lsQB3331TQHydO8PtduP666/XP1utVn07++yzMW7cOGRnZ+t11ZQET3FxMZ5//nnZOrVThdHJ6m1bT46f7pjYAvn46Y6Jzd/HxdbROT09LraOzunouNg6Oqenx8V2qnNUaG5u1ns87UVEROiBlJGRgcmTJ+shFBMTI4/6npLgaWho0MeZ7TfhxNqJW0fn8Lh/j4uto3NC9bg3nSyQxHa6Y2Lr6LjY2lRUVMhPP2Sz2fR/o2PGjMGZZ56pD8l8TUnwEIWatn82bUF0sq2nx8XW0TmdOd7U1IRHH31U/9ye0WiEyWTSezpi6CWCJysrSx71LQYPUYgTd7Ruvvlm2Wrt4Yje0Pjx4/Uh1oABA+QRdRg8RCFODKNmzJihh83IkSP1O1ujRo2SR/2DwUMU4kTwLFu2DGPHjtXvaAUCBg8RKccnl4lIOQYPESnH4CEi5Rg8RKQY8P8B4zZyWU5fViUAAAAASUVORK5CYII=;" parent="1" vertex="1">
          <mxGeometry x="640.2" y="330" width="55.68" height="110" as="geometry" />
        </mxCell>
        <mxCell id="aB4jjDkMeXqBvQ0BAeto-24" value="Python" style="rounded=0;whiteSpace=wrap;html=1;" parent="1" vertex="1">
          <mxGeometry x="628.04" y="450" width="80" height="20" as="geometry" />
        </mxCell>
      </root>
    </mxGraphModel>
  </diagram>
</mxfile>
